<?xml version="1.0" encoding="utf-8"?>
<!-- Generator: Adobe Illustrator 25.0.0, SVG Export Plug-In . SVG Version: 6.00 Build 0)  -->
<svg version="1.1" id="Calque_1" xmlns="http://www.w3.org/2000/svg" xmlns:xlink="http://www.w3.org/1999/xlink" x="0px" y="0px"
	 viewBox="0 0 247.2 340.2" style="enable-background:new 0 0 247.2 340.2;" xml:space="preserve">
<path d="M21.3,309.6c0,2.7-0.1,5.4-0.3,8.1c28.2-6.7,63.7-10.7,102.3-10.7s74.1,4,102.3,10.7c-0.1-2.7-0.3-5.3-0.3-8.1
	c0-43.2-26.9-80.1-64.8-95c37.9-14.9,64.8-51.8,64.8-95c0-56.3-45.7-102-102-102s-102,45.7-102,102c0,43.2,26.9,80.1,64.8,95
	C48.2,229.4,21.3,266.4,21.3,309.6z"/>
</svg>
